# xmcd
#
# Track frame offsets:
#	150
#	6297
#	31112
#	61243
#	80453
#	109592
#	140485
#	171532
#	208702
#	229330
#	245026
#	277115
#	289968
#	311420
#	327124
#	346712
#
# Disc length: 4794 seconds
#
# Revision: 1
# Processed by: cddbd v1.5.2PL0 Copyright (c) Steve Scherf et al.
# Submitted via: audiograbber 1.83.01
#
DISCID=ea12b810
DTITLE=Joe Bonamassa - Greatest Hits  CD1
DYEAR=2015
DGENRE=Blues/Rock
TTITLE0=Hey Baby (New Rising Sun)
TTITLE1=Oh Beautiful!
TTITLE2=Dislocated Boy
TTITLE3=Black Lung Heartache
TTITLE4=The Ballad Of John Henry
TTITLE5=Burning Hell 
TTITLE6=Reconsider Baby
TTITLE7=Sloe Gin
TTITLE8=Dust Bowl
TTITLE9=Walk In My Shadows
TTITLE10=So Many Roads
TTITLE11=So, It's Like That
TTITLE12=Feelin' Good
TTITLE13=Ball Peen Hammer
TTITLE14=I Know A Place
TTITLE15=Woke Up Dreaming
EXTD=
EXTT0=
EXTT1=
EXTT2=
EXTT3=
EXTT4=
EXTT5=
EXTT6=
EXTT7=
EXTT8=
EXTT9=
EXTT10=
EXTT11=
EXTT12=
EXTT13=
EXTT14=
EXTT15=
PLAYORDER=
